# xmcd CD database file
#
# Track frame offsets:
#	150
#	68035
#	81133
#	98955
#	165137
#	184087
#	212391
#	237097
#	265034
#	284280
#	325863
#
# Disc length: 4572 seconds
#
# Revision: 0
# Processed by: cddbd v1.5.2PL0 Copyright (c) Steve Scherf et al.
# Submitted via: CDex 1.51
#
DISCID=8711da0b
DTITLE=Yusef Lateef - At Cranbrook And Elsewhere
DYEAR=1900
DGENRE=Jazz
TTITLE0=Morning
TTITLE1=Brazil
TTITLE2=Let Every Soul Say Amen
TTITLE3=Woody'n You
TTITLE4=The Beginning
TTITLE5=Open Strings
TTITLE6=Before Dawn
TTITLE7=Love and Humor
TTITLE8=Playful Flute
TTITLE9=Taboo
TTITLE10=Mahaba
EXTD=
EXTT0=
EXTT1=
EXTT2=
EXTT3=
EXTT4=
EXTT5=
EXTT6=
EXTT7=
EXTT8=
EXTT9=
EXTT10=
PLAYORDER=
